<mxfile host="app.diagrams.net" agent="Mozilla/5.0 (Windows NT 10.0; Win64; x64; rv:134.0) Gecko/20100101 Firefox/134.0" version="26.0.5">
  <diagram name="Page-1" id="UNxTIzpOMY2JaLL9Gnkj">
    <mxGraphModel dx="1615" dy="858" grid="1" gridSize="10" guides="1" tooltips="1" connect="1" arrows="1" fold="1" page="1" pageScale="1" pageWidth="850" pageHeight="1100" math="0" shadow="0">
      <root>
        <mxCell id="0" />
        <mxCell id="1" parent="0" />
        <mxCell id="2" value="Backend" style="whiteSpace=wrap;strokeWidth=2;" parent="1" vertex="1">
          <mxGeometry x="410" y="100" width="1400" height="130" as="geometry" />
        </mxCell>
        <mxCell id="6" value="Login" style="whiteSpace=wrap;strokeWidth=2;" parent="1" vertex="1">
          <mxGeometry x="428" y="147" width="122" height="54" as="geometry" />
        </mxCell>
        <mxCell id="7" value="MyAnimeList API OAuth" style="whiteSpace=wrap;strokeWidth=2;" parent="1" vertex="1">
          <mxGeometry x="570" y="147" width="177" height="54" as="geometry" />
        </mxCell>
        <mxCell id="8" value="Get access/refresh token" style="whiteSpace=wrap;strokeWidth=2;" parent="1" vertex="1">
          <mxGeometry x="770" y="147" width="168" height="54" as="geometry" />
        </mxCell>
        <mxCell id="11" value="Save tokens to PostgreSQL DatabaseÂ &#xa;and create user object&#xa;" style="whiteSpace=wrap;strokeWidth=2;" parent="1" vertex="1">
          <mxGeometry x="960" y="135" width="260" height="78" as="geometry" />
        </mxCell>
        <mxCell id="87IMJ_oUNPjuRIVauD1v-23" value="" style="edgeStyle=orthogonalEdgeStyle;rounded=0;orthogonalLoop=1;jettySize=auto;html=1;" edge="1" parent="1" source="13" target="87IMJ_oUNPjuRIVauD1v-22">
          <mxGeometry relative="1" as="geometry" />
        </mxCell>
        <mxCell id="13" value="Generate JWT Access Token&#xa;for user to access our system&#xa;" style="whiteSpace=wrap;strokeWidth=2;" parent="1" vertex="1">
          <mxGeometry x="1250" y="135" width="260" height="78" as="geometry" />
        </mxCell>
        <mxCell id="16" value="" style="curved=1;startArrow=none;endArrow=block;exitX=1;exitY=0.5;entryX=0;entryY=0.5;" parent="1" source="6" target="7" edge="1">
          <mxGeometry relative="1" as="geometry">
            <Array as="points" />
          </mxGeometry>
        </mxCell>
        <mxCell id="17" value="" style="curved=1;startArrow=none;endArrow=block;exitX=1;exitY=0.5;entryX=0;entryY=0.5;" parent="1" source="7" target="8" edge="1">
          <mxGeometry relative="1" as="geometry">
            <Array as="points" />
          </mxGeometry>
        </mxCell>
        <mxCell id="20" value="" style="curved=1;startArrow=none;endArrow=block;exitX=1;exitY=0.5;entryX=0;entryY=0.5;exitDx=0;exitDy=0;" parent="1" source="8" target="11" edge="1">
          <mxGeometry relative="1" as="geometry">
            <Array as="points" />
            <mxPoint x="1200" y="122" as="sourcePoint" />
          </mxGeometry>
        </mxCell>
        <mxCell id="22" value="" style="curved=1;startArrow=none;endArrow=block;exitX=1;exitY=0.5;entryX=0;entryY=0.5;exitDx=0;exitDy=0;" parent="1" source="11" target="13" edge="1">
          <mxGeometry relative="1" as="geometry">
            <Array as="points" />
            <mxPoint x="1405" y="174" as="sourcePoint" />
          </mxGeometry>
        </mxCell>
        <mxCell id="87IMJ_oUNPjuRIVauD1v-22" value="Save JWT tokens as cookies for persistence login " style="whiteSpace=wrap;strokeWidth=2;" vertex="1" parent="1">
          <mxGeometry x="1530" y="135" width="260" height="78" as="geometry" />
        </mxCell>
        <mxCell id="87IMJ_oUNPjuRIVauD1v-24" value="Login System" style="text;html=1;align=center;verticalAlign=middle;whiteSpace=wrap;rounded=0;" vertex="1" parent="1">
          <mxGeometry x="970" y="80" width="240" height="80" as="geometry" />
        </mxCell>
        <mxCell id="87IMJ_oUNPjuRIVauD1v-25" value="" style="whiteSpace=wrap;strokeWidth=2;" vertex="1" parent="1">
          <mxGeometry x="410" y="240" width="1400" height="370" as="geometry" />
        </mxCell>
        <mxCell id="87IMJ_oUNPjuRIVauD1v-39" style="edgeStyle=orthogonalEdgeStyle;rounded=0;orthogonalLoop=1;jettySize=auto;html=1;entryX=0.5;entryY=0;entryDx=0;entryDy=0;" edge="1" parent="1" source="87IMJ_oUNPjuRIVauD1v-26" target="87IMJ_oUNPjuRIVauD1v-27">
          <mxGeometry relative="1" as="geometry" />
        </mxCell>
        <mxCell id="87IMJ_oUNPjuRIVauD1v-40" style="edgeStyle=orthogonalEdgeStyle;rounded=0;orthogonalLoop=1;jettySize=auto;html=1;entryX=0.5;entryY=0;entryDx=0;entryDy=0;" edge="1" parent="1" source="87IMJ_oUNPjuRIVauD1v-26" target="87IMJ_oUNPjuRIVauD1v-28">
          <mxGeometry relative="1" as="geometry" />
        </mxCell>
        <mxCell id="87IMJ_oUNPjuRIVauD1v-41" style="edgeStyle=orthogonalEdgeStyle;rounded=0;orthogonalLoop=1;jettySize=auto;html=1;exitX=0;exitY=0.5;exitDx=0;exitDy=0;" edge="1" parent="1" source="87IMJ_oUNPjuRIVauD1v-26" target="87IMJ_oUNPjuRIVauD1v-29">
          <mxGeometry relative="1" as="geometry" />
        </mxCell>
        <mxCell id="87IMJ_oUNPjuRIVauD1v-42" style="edgeStyle=orthogonalEdgeStyle;rounded=0;orthogonalLoop=1;jettySize=auto;html=1;exitX=1;exitY=0.5;exitDx=0;exitDy=0;entryX=0.5;entryY=0;entryDx=0;entryDy=0;" edge="1" parent="1" source="87IMJ_oUNPjuRIVauD1v-26" target="87IMJ_oUNPjuRIVauD1v-30">
          <mxGeometry relative="1" as="geometry" />
        </mxCell>
        <mxCell id="87IMJ_oUNPjuRIVauD1v-43" style="edgeStyle=orthogonalEdgeStyle;rounded=0;orthogonalLoop=1;jettySize=auto;html=1;exitX=1;exitY=0.5;exitDx=0;exitDy=0;entryX=0.5;entryY=0;entryDx=0;entryDy=0;" edge="1" parent="1" source="87IMJ_oUNPjuRIVauD1v-26" target="87IMJ_oUNPjuRIVauD1v-31">
          <mxGeometry relative="1" as="geometry" />
        </mxCell>
        <mxCell id="87IMJ_oUNPjuRIVauD1v-44" style="edgeStyle=orthogonalEdgeStyle;rounded=0;orthogonalLoop=1;jettySize=auto;html=1;exitX=1;exitY=0.5;exitDx=0;exitDy=0;entryX=0.5;entryY=0;entryDx=0;entryDy=0;" edge="1" parent="1" source="87IMJ_oUNPjuRIVauD1v-26" target="87IMJ_oUNPjuRIVauD1v-32">
          <mxGeometry relative="1" as="geometry" />
        </mxCell>
        <mxCell id="87IMJ_oUNPjuRIVauD1v-26" value="Home Page" style="whiteSpace=wrap;strokeWidth=2;" vertex="1" parent="1">
          <mxGeometry x="999" y="280" width="122" height="54" as="geometry" />
        </mxCell>
        <mxCell id="87IMJ_oUNPjuRIVauD1v-27" value="Show all anime scored 9-10 in user&#39;s animelist" style="rounded=0;whiteSpace=wrap;html=1;" vertex="1" parent="1">
          <mxGeometry x="440" y="365" width="140" height="80" as="geometry" />
        </mxCell>
        <mxCell id="87IMJ_oUNPjuRIVauD1v-28" value="Show anime in &quot;Planned to Watch&quot; list that are currently airing" style="rounded=0;whiteSpace=wrap;html=1;" vertex="1" parent="1">
          <mxGeometry x="630" y="365" width="140" height="80" as="geometry" />
        </mxCell>
        <mxCell id="87IMJ_oUNPjuRIVauD1v-29" value="Show anime in &quot;Planned to Watch&quot; list from current/last season that have finished airing" style="rounded=0;whiteSpace=wrap;html=1;" vertex="1" parent="1">
          <mxGeometry x="830" y="360" width="140" height="90" as="geometry" />
        </mxCell>
        <mxCell id="87IMJ_oUNPjuRIVauD1v-30" value="Show anime in &quot;Planned to Watch&quot; list based on genre" style="rounded=0;whiteSpace=wrap;html=1;" vertex="1" parent="1">
          <mxGeometry x="1105" y="365" width="140" height="90" as="geometry" />
        </mxCell>
        <mxCell id="87IMJ_oUNPjuRIVauD1v-31" value="Show anime that are in &quot;completed&quot; list, and have other/new seasons that are not in &quot;planned to watch&quot;, &quot;dropped&quot;, &quot;watching&quot; or &quot;completed&quot; list" style="rounded=0;whiteSpace=wrap;html=1;" vertex="1" parent="1">
          <mxGeometry x="1290" y="345" width="160" height="120" as="geometry" />
        </mxCell>
        <mxCell id="87IMJ_oUNPjuRIVauD1v-34" value="" style="edgeStyle=orthogonalEdgeStyle;rounded=0;orthogonalLoop=1;jettySize=auto;html=1;" edge="1" parent="1" source="87IMJ_oUNPjuRIVauD1v-32" target="87IMJ_oUNPjuRIVauD1v-33">
          <mxGeometry relative="1" as="geometry" />
        </mxCell>
        <mxCell id="87IMJ_oUNPjuRIVauD1v-36" value="" style="edgeStyle=orthogonalEdgeStyle;rounded=0;orthogonalLoop=1;jettySize=auto;html=1;" edge="1" parent="1" source="87IMJ_oUNPjuRIVauD1v-32" target="87IMJ_oUNPjuRIVauD1v-35">
          <mxGeometry relative="1" as="geometry" />
        </mxCell>
        <mxCell id="87IMJ_oUNPjuRIVauD1v-32" value="Show recommended anime based on &quot;favorite&quot; category defined." style="rounded=0;whiteSpace=wrap;html=1;" vertex="1" parent="1">
          <mxGeometry x="1500" y="334" width="160" height="120" as="geometry" />
        </mxCell>
        <mxCell id="87IMJ_oUNPjuRIVauD1v-33" value="Shows that are airing in current season and not in &quot;Planned to Watch&quot; list" style="whiteSpace=wrap;html=1;rounded=0;" vertex="1" parent="1">
          <mxGeometry x="1410" y="504" width="120" height="60" as="geometry" />
        </mxCell>
        <mxCell id="87IMJ_oUNPjuRIVauD1v-35" value="Shows in favorite category that are not in &quot;completed&quot;, &quot;watching&quot;, &quot;dropped&quot; or &quot;Plan to Watch&quot; lists" style="whiteSpace=wrap;html=1;rounded=0;" vertex="1" parent="1">
          <mxGeometry x="1610" y="504" width="190" height="90" as="geometry" />
        </mxCell>
        <mxCell id="87IMJ_oUNPjuRIVauD1v-45" value="" style="whiteSpace=wrap;strokeWidth=2;" vertex="1" parent="1">
          <mxGeometry x="410" y="620" width="1400" height="360" as="geometry" />
        </mxCell>
        <mxCell id="87IMJ_oUNPjuRIVauD1v-49" value="" style="edgeStyle=orthogonalEdgeStyle;rounded=0;orthogonalLoop=1;jettySize=auto;html=1;" edge="1" parent="1" source="87IMJ_oUNPjuRIVauD1v-46" target="87IMJ_oUNPjuRIVauD1v-48">
          <mxGeometry relative="1" as="geometry" />
        </mxCell>
        <mxCell id="87IMJ_oUNPjuRIVauD1v-46" value="Tools" style="whiteSpace=wrap;strokeWidth=2;" vertex="1" parent="1">
          <mxGeometry x="999" y="640" width="122" height="54" as="geometry" />
        </mxCell>
        <mxCell id="87IMJ_oUNPjuRIVauD1v-51" value="" style="edgeStyle=orthogonalEdgeStyle;rounded=0;orthogonalLoop=1;jettySize=auto;html=1;" edge="1" parent="1" source="87IMJ_oUNPjuRIVauD1v-48" target="87IMJ_oUNPjuRIVauD1v-50">
          <mxGeometry relative="1" as="geometry" />
        </mxCell>
        <mxCell id="87IMJ_oUNPjuRIVauD1v-48" value="Change scores in list" style="whiteSpace=wrap;html=1;strokeWidth=2;" vertex="1" parent="1">
          <mxGeometry x="530" y="710" width="120" height="60" as="geometry" />
        </mxCell>
        <mxCell id="87IMJ_oUNPjuRIVauD1v-53" value="" style="edgeStyle=orthogonalEdgeStyle;rounded=0;orthogonalLoop=1;jettySize=auto;html=1;" edge="1" parent="1" source="87IMJ_oUNPjuRIVauD1v-50" target="87IMJ_oUNPjuRIVauD1v-52">
          <mxGeometry relative="1" as="geometry" />
        </mxCell>
        <mxCell id="87IMJ_oUNPjuRIVauD1v-50" value="&lt;div&gt;Select category &lt;br&gt;&lt;/div&gt;&lt;div&gt;(e.g. completed, plan to watch etc)&lt;br&gt;&lt;/div&gt;" style="whiteSpace=wrap;html=1;strokeWidth=2;" vertex="1" parent="1">
          <mxGeometry x="530" y="790" width="120" height="60" as="geometry" />
        </mxCell>
        <mxCell id="87IMJ_oUNPjuRIVauD1v-52" value="Change all X scores to Y (e.g. all anime that are scored 8 should be scored 6 now)" style="whiteSpace=wrap;html=1;strokeWidth=2;" vertex="1" parent="1">
          <mxGeometry x="520" y="870" width="140" height="80" as="geometry" />
        </mxCell>
        <mxCell id="87IMJ_oUNPjuRIVauD1v-62" value="" style="whiteSpace=wrap;strokeWidth=2;" vertex="1" parent="1">
          <mxGeometry x="410" y="990" width="1400" height="360" as="geometry" />
        </mxCell>
        <mxCell id="87IMJ_oUNPjuRIVauD1v-65" value="" style="edgeStyle=orthogonalEdgeStyle;rounded=0;orthogonalLoop=1;jettySize=auto;html=1;" edge="1" parent="1" source="87IMJ_oUNPjuRIVauD1v-63" target="87IMJ_oUNPjuRIVauD1v-64">
          <mxGeometry relative="1" as="geometry" />
        </mxCell>
        <mxCell id="87IMJ_oUNPjuRIVauD1v-67" value="" style="edgeStyle=orthogonalEdgeStyle;rounded=0;orthogonalLoop=1;jettySize=auto;html=1;" edge="1" parent="1" source="87IMJ_oUNPjuRIVauD1v-63" target="87IMJ_oUNPjuRIVauD1v-66">
          <mxGeometry relative="1" as="geometry" />
        </mxCell>
        <mxCell id="87IMJ_oUNPjuRIVauD1v-69" value="" style="edgeStyle=orthogonalEdgeStyle;rounded=0;orthogonalLoop=1;jettySize=auto;html=1;" edge="1" parent="1" source="87IMJ_oUNPjuRIVauD1v-63" target="87IMJ_oUNPjuRIVauD1v-68">
          <mxGeometry relative="1" as="geometry" />
        </mxCell>
        <mxCell id="87IMJ_oUNPjuRIVauD1v-63" value="Settings" style="whiteSpace=wrap;strokeWidth=2;" vertex="1" parent="1">
          <mxGeometry x="999" y="1010" width="122" height="54" as="geometry" />
        </mxCell>
        <mxCell id="87IMJ_oUNPjuRIVauD1v-64" value="Favorite genre" style="whiteSpace=wrap;html=1;strokeWidth=2;" vertex="1" parent="1">
          <mxGeometry x="530" y="1080" width="120" height="60" as="geometry" />
        </mxCell>
        <mxCell id="87IMJ_oUNPjuRIVauD1v-66" value="Favorite animes" style="whiteSpace=wrap;html=1;strokeWidth=2;" vertex="1" parent="1">
          <mxGeometry x="730" y="1080" width="120" height="60" as="geometry" />
        </mxCell>
        <mxCell id="87IMJ_oUNPjuRIVauD1v-68" value="Blacklisted genre" style="whiteSpace=wrap;html=1;strokeWidth=2;" vertex="1" parent="1">
          <mxGeometry x="1230" y="1080" width="120" height="60" as="geometry" />
        </mxCell>
      </root>
    </mxGraphModel>
  </diagram>
</mxfile>
